<mxfile host="65bd71144e">
    <diagram id="3vJI7QXsskfFWkMhxEzt" name="Page-1">
        <mxGraphModel dx="460" dy="392" grid="1" gridSize="10" guides="1" tooltips="1" connect="1" arrows="1" fold="1" page="1" pageScale="1" pageWidth="827" pageHeight="1169" background="none" math="0" shadow="0">
            <root>
                <mxCell id="0"/>
                <mxCell id="1" parent="0"/>
                <mxCell id="18" style="edgeStyle=none;html=1;" parent="1" source="2" edge="1">
                    <mxGeometry relative="1" as="geometry">
                        <mxPoint x="150" y="130" as="targetPoint"/>
                    </mxGeometry>
                </mxCell>
                <mxCell id="2" value="User.vdmsl" style="whiteSpace=wrap;html=1;" parent="1" vertex="1">
                    <mxGeometry x="20" y="117.5" width="85" height="25" as="geometry"/>
                </mxCell>
                <mxCell id="21" style="edgeStyle=none;html=1;exitX=1;exitY=0.5;exitDx=0;exitDy=0;entryX=0.5;entryY=1;entryDx=0;entryDy=0;" parent="1" source="10" target="13" edge="1">
                    <mxGeometry relative="1" as="geometry">
                        <mxPoint x="263" y="310" as="targetPoint"/>
                        <Array as="points">
                            <mxPoint x="505" y="242"/>
                        </Array>
                    </mxGeometry>
                </mxCell>
                <mxCell id="31" value="CSVLib.java" style="text;html=1;strokeColor=none;fillColor=none;align=center;verticalAlign=middle;whiteSpace=wrap;rounded=0;rotation=0;" parent="1" vertex="1">
                    <mxGeometry x="400" y="70" width="210" height="20" as="geometry"/>
                </mxCell>
                <mxCell id="20" value="" style="group;" parent="1" vertex="1" connectable="0">
                    <mxGeometry x="400" y="92" width="210" height="120" as="geometry"/>
                </mxCell>
                <mxCell id="13" value="" style="whiteSpace=wrap;html=1;" parent="20" vertex="1">
                    <mxGeometry width="210" height="120" as="geometry"/>
                </mxCell>
                <mxCell id="17" value="CSV-IO native implementation" style="whiteSpace=wrap;html=1;" parent="20" vertex="1">
                    <mxGeometry x="10" y="88" width="190" height="20" as="geometry"/>
                </mxCell>
                <mxCell id="15" value="VDMJ AST linkage&amp;nbsp;" style="whiteSpace=wrap;html=1;" parent="20" vertex="1">
                    <mxGeometry x="10" y="8" width="190" height="20" as="geometry"/>
                </mxCell>
                <mxCell id="14" value="CSV Parser interfacing" style="whiteSpace=wrap;html=1;" parent="20" vertex="1">
                    <mxGeometry x="10" y="38" width="90" height="40" as="geometry"/>
                </mxCell>
                <mxCell id="16" value="CSV Printing" style="whiteSpace=wrap;html=1;" parent="20" vertex="1">
                    <mxGeometry x="110" y="38" width="90" height="40" as="geometry"/>
                </mxCell>
                <mxCell id="24" value="CSVLib.vdmsl" style="text;html=1;strokeColor=none;fillColor=none;align=center;verticalAlign=middle;whiteSpace=wrap;rounded=0;rotation=0;" parent="1" vertex="1">
                    <mxGeometry x="150" y="70" width="210" height="20" as="geometry"/>
                </mxCell>
                <mxCell id="27" value="" style="group" parent="1" vertex="1" connectable="0">
                    <mxGeometry x="152.5" y="92" width="210" height="170" as="geometry"/>
                </mxCell>
                <mxCell id="4" value="Consistency checking" style="whiteSpace=wrap;html=1;" parent="27" vertex="1">
                    <mxGeometry x="10" y="90" width="90" height="40" as="geometry"/>
                </mxCell>
                <mxCell id="5" value="Error management" style="whiteSpace=wrap;html=1;" parent="27" vertex="1">
                    <mxGeometry x="110" y="90" width="90" height="40" as="geometry"/>
                </mxCell>
                <mxCell id="6" value="Headers and Invariants setup" style="whiteSpace=wrap;html=1;" parent="27" vertex="1">
                    <mxGeometry x="10" y="40" width="90" height="40" as="geometry"/>
                </mxCell>
                <mxCell id="7" value="Settings and Parser choices" style="whiteSpace=wrap;html=1;" parent="27" vertex="1">
                    <mxGeometry x="110" y="40" width="90" height="40" as="geometry"/>
                </mxCell>
                <mxCell id="10" value="CSV-IO (VDM native calls)" style="whiteSpace=wrap;html=1;" parent="27" vertex="1">
                    <mxGeometry x="10" y="140" width="190" height="20" as="geometry"/>
                </mxCell>
                <mxCell id="23" value="CSVLib user interface (VDM ops)" style="whiteSpace=wrap;html=1;" parent="27" vertex="1">
                    <mxGeometry x="10" y="10" width="190" height="20" as="geometry"/>
                </mxCell>
            </root>
        </mxGraphModel>
    </diagram>
</mxfile>